<svg height="300.203" viewBox="0 0 300 300.20289" width="300" xmlns="http://www.w3.org/2000/svg" xmlns:xlink="http://www.w3.org/1999/xlink"><linearGradient id="a"><stop offset="0" stop-color="#f9ab95"/><stop offset=".42" stop-color="#ed1c24"/><stop offset=".427" stop-color="#ed1c24"/><stop offset=".873" stop-color="#ed1c24"/><stop offset="1" stop-color="#981015"/></linearGradient><radialGradient id="b" cx="0" cy="0" gradientTransform="matrix(30.668899 0 0 -30.668899 54.739258 480.55713)" gradientUnits="userSpaceOnUse" r="1" spreadMethod="pad" xlink:href="#a"/><radialGradient id="c" cx="0" cy="0" gradientTransform="matrix(30.666946 0 0 -30.666946 54.740234 480.55811)" gradientUnits="userSpaceOnUse" r="1" spreadMethod="pad" xlink:href="#a"/><radialGradient id="d" cx="0" cy="0" gradientTransform="matrix(30.662826 0 0 -30.662826 54.738281 480.55322)" gradientUnits="userSpaceOnUse" r="1" spreadMethod="pad" xlink:href="#a"/><radialGradient id="e" cx="0" cy="0" gradientTransform="matrix(30.668426 0 0 -30.668426 54.737793 480.55615)" gradientUnits="userSpaceOnUse" r="1" spreadMethod="pad" xlink:href="#a"/><radialGradient id="f" cx="0" cy="0" gradientTransform="matrix(30.633362 0 0 -30.633347 54.729981 480.55664)" gradientUnits="userSpaceOnUse" r="1" spreadMethod="pad" xlink:href="#a"/><radialGradient id="g" cx="0" cy="0" gradientTransform="matrix(30.633118 0 0 -30.633118 54.732422 480.55762)" gradientUnits="userSpaceOnUse" r="1" spreadMethod="pad" xlink:href="#a"/><radialGradient id="h" cx="0" cy="0" gradientTransform="matrix(30.641281 0 0 -30.641281 54.736328 480.56445)" gradientUnits="userSpaceOnUse" r="1" spreadMethod="pad" xlink:href="#a"/><radialGradient id="i" cx="0" cy="0" gradientTransform="matrix(30.638077 0 0 -30.638077 54.730957 480.56006)" gradientUnits="userSpaceOnUse" r="1" spreadMethod="pad" xlink:href="#a"/><clipPath id="j"><path d="m0 521.57h368.5v-521.57h-368.5z"/></clipPath><path d="m0 0h3.467v2.77h1.555v-6.834h-1.555v2.854h-3.467v-2.854h-1.559v6.834h1.559z" fill="#231f20" transform="matrix(7.0133699 0 0 -7.0133699 12.00802 270.1801)"/><g clip-path="url(#j)" fill="#231f20" transform="matrix(7.0133699 0 0 -7.0133699 -195.09191 3398.87953)"><path d="m0 0c0-1.208.381-1.714 1.67-1.714 1.285 0 1.658.506 1.658 1.714v4.095h1.559v-4.131c0-.872-.106-1.473-.438-1.839-.605-.664-1.494-.938-2.779-.938-1.289 0-2.184.274-2.795.938-.338.371-.422.972-.422 1.839v4.131h1.547z" transform="translate(37.3755 444.7798)"/><path d="m0 0h2.207l-1.123 2.63zm1.969 3.992 3.154-6.834h-1.73l-.682 1.626h-3.219l-.654-1.626h-1.652l3.13 6.834z" transform="translate(45.3774 444.8823)"/><path d="m0 0 1.711-5.254 1.443 5.254h1.838l1.654-5.254 1.598 5.254h1.6l-2.287-6.834h-1.907l-1.578 5.098-1.379-5.098h-1.9l-2.465 6.834z" transform="translate(51.2056 448.8745)"/><path d="m0 0h4.303v-1.188h-4.313c.01-1.233.533-1.681 1.764-1.681h2.549v-1.187h-2.623c-.893 0-1.588.065-2.309.599-.766.559-1.133 1.458-1.133 2.693 0 2.416 1.1 3.542 3.487 3.542h2.578v-1.194h-2.549c-1.129 0-1.693-.513-1.754-1.584" transform="translate(63.145 446.0962)"/><path d="m68.825 448.875h1.625v-6.834h-1.625z"/></g><path d="m31.014 471.791c.14-2.671 2.151-4.255 2.151-4.255 3.24-3.157 11.084-7.141 12.904-8.049.024-.002.119-.036.174.035s.075.059.037.155c-4.991 10.904-11.816 19.172-11.816 19.172s-3.715-3.527-3.45-7.058" fill="url(#i)" transform="matrix(7.0133699 0 0 -7.0133699 -195.09191 3398.87953)"/><path d="m31.809 456.488c1.415-2.523 3.801-4.486 6.285-3.883 1.717.429 5.596 3.137 6.875 4.054l-.004.001c.1.087.071.161.071.161-.038.117-.172.117-.172.117v.005z" fill="url(#h)" transform="matrix(7.0133699 0 0 -7.0133699 -195.09191 3398.87953)"/><path d="m28.685 462.349c1.416-2.994 4.121-3.902 4.121-3.902 1.247-.513 2.496-.546 2.496-.546.195-.035 7.765-.004 9.792.004.088 0 .135.088.135.088.063.102-.047.198-.047.198v.001c-5.734 3.866-16.849 9.805-16.849 9.805-1.011-3.127.352-5.648.352-5.648" fill="url(#g)" transform="matrix(7.0133699 0 0 -7.0133699 -195.09191 3398.87953)"/><path d="m43.993 484.086c-3.457-.894-4.274-4.03-4.274-4.03-.63-1.974.018-4.14.018-4.14 1.15-5.121 6.83-13.531 8.052-15.298.088-.087.153-.054.153-.054.122.033.125.144.125.161 1.875 18.782-1.974 23.761-1.974 23.761-.567-.053-2.1-.4-2.1-.4" fill="url(#f)" transform="matrix(7.0133699 0 0 -7.0133699 -195.09191 3398.87953)"/><path d="m50.313 460.713h.006c.01-.121.1-.146.1-.146.124-.048.187.073.187.073v-.003c1.256 1.809 6.897 10.181 8.052 15.279s.616 2.47.015 4.14-.85 3.185-4.313 4.025-.998.257-2.055.405-3.869-4.982-1.992-23.773" fill="url(#e)" transform="matrix(7.0133699 0 0 -7.0133699 -195.09191 3398.87953)"/><path d="m53.509 456.931s-.116-.016-.147-.102-.03-.114.052-.172v-.002c1.245-.898 5.032-3.546 6.86-4.061s3.375-1.15 6.304 3.884l-13.069.457z" fill="url(#d)" transform="matrix(7.0133699 0 0 -7.0133699 -195.09191 3398.87953)"/><path d="m53.219 458.198v-.001s-.097-.066-.064-.19.055-.097.132-.097v-.005c2.053 0 9.831-.008 10.03.026s1.004.039 2.246.516 2.766.882 4.2 4.023 1.282 2.563.292 5.555-11.1-5.953-16.836-9.827" fill="url(#c)" transform="matrix(7.0133699 0 0 -7.0133699 -195.09191 3398.87953)"/><path d="m52.133 459.731h.006s-.064-.127.033-.209.09-.068.176-.015c1.872.93 9.652 4.887 12.875 8.029s2.041 1.639 2.15 4.27c.235 3.658-3.441 7.043-3.441 7.043s-6.813-8.244-11.799-19.118" fill="url(#b)" transform="matrix(7.0133699 0 0 -7.0133699 -195.09191 3398.87953)"/></svg>