<svg viewBox="0 0 200 65" xmlns="http://www.w3.org/2000/svg"><path d="m44.9 49.5c-4.5 3.5-10.1 5.5-16.2 5.5-14.7 0-26.6-11.9-26.6-26.6 0-14.8 11.9-26.7 26.6-26.7s26.6 11.9 26.6 26.6c0 6.1-2 11.7-5.5 16.2 1.3 1 7.4 5.5 8 6.3-.2-2.2-1-9.3-1-9.3l22.3 16.7.1.5-16.5-7.3 1.5 12.6zm-6.4-5c-3.1-2.3-15.1-11-15.1-11h11.7c.7.5 5.9 4.4 8.5 6.4 2.4-3.2 3.9-7.2 3.9-11.5 0-10.5-8.4-19-18.8-19s-18.8 8.5-18.8 19 8.4 19 18.8 19c3.6-.1 7-1.1 9.8-2.9z" fill="#ff9b00"/><g fill="#036"><path d="m89.2 24.8-3.2-14.7h4.7l1 6.9c.2 1.6.4 2.9.6 3.9h.1c.3-1 .8-2.2 1.5-3.9l2.9-6.9h4.7l-10.4 20.7h-5.3z"/><path d="m72.8 4.1-1.6 8.5h8.1l1.6-8.5h4.5l-4.1 21.8h-4.5l1.7-9.2h-8.1l-1.7 9.2h-4.5l4.1-21.8z"/><path d="m117.8 25.9 1.8-9.5c.4-2.4.6-5 .8-6.3h3.9c-.1 1.1-.2 2.1-.3 3.3h.1c1.1-2.1 2.9-3.6 5-3.6h.9l-.9 4.4c-.2 0-.5 0-.7 0-2.9 0-4.4 2.7-4.9 5.8l-1.1 6h-4.6z"/><path d="m136 26.3c-4 0-6.7-2.6-6.7-6.5 0-5.4 3.8-10 9.4-10 4.2 0 6.7 2.9 6.7 6.5 0 5.6-4 10-9.4 10zm.6-3.5c2.6 0 4.1-3.8 4.1-6.5 0-1.5-.7-3.1-2.6-3.1-2.7 0-4.2 3.9-4.2 6.5 0 1.8 1 3.1 2.7 3.1z"/><path d="m118.3 3.6-3.1 16.3c-.4 2-.7 4.2-.7 6h-4.1l.2-2.6h-.1c-1.4 2.1-3.3 3-5.2 3-2.7 0-4.9-2.1-4.9-5.9 0-5.5 4-10.6 9.9-10.6.7 0 1.5.1 2.2.4l1.3-6.6zm-6.4 10.1c-.4-.3-1.1-.6-1.9-.6-2.9 0-4.9 3.3-4.9 6.4 0 1.9.8 3.1 2.2 3.1s3.1-1.5 3.7-4.6z"/><path d="m134 36.8-2 10.7c-.4 2-.6 3.7-.8 5.1h-4l.3-2.6h-.1c-1.6 2.1-3.5 3-5.4 3-2.5 0-4.1-1.4-4.1-4.4 0-.9.1-1.8.3-2.9l1.7-8.8h4.5l-1.6 8.5c-.1.7-.2 1.5-.2 2.1 0 1.1.4 1.9 1.7 1.9 1.6 0 3.3-1.9 3.9-5.1l1.4-7.4h4.4z"/><path d="m195.3 52.1c-1 .5-2.6.8-4.5.8-3.9 0-6.6-2.4-6.6-6.5 0-5.6 4.3-10 10.2-10 1.4 0 2.5.3 3.2.5l-1.1 3.4c-.6-.2-1.2-.4-2.2-.4-3.4 0-5.5 2.9-5.5 5.9 0 2.2 1.4 3.4 3.2 3.4 1.4 0 2.4-.3 3.2-.7z"/><path d="m150.1 51.9 4.1-21.7h4.5l-1.6 8.6h.1c.9-1.4 2.9-2.5 4.9-2.5 3.3 0 4.9 2.5 4.9 5.5-.3 8.8-7.9 13.4-16.9 10.1zm4.9-2.6c4.1 1.8 7.1-2.9 7.1-6.6 0-1.6-.8-2.8-2.1-2.8-1.8 0-3.6 1.8-4.2 5.1z"/><path d="m182.7 44.9c.7-3 .6-8.5-5.4-8.5-5.8 0-9.2 5.1-9.2 9.9 0 4 2.2 6.6 6.8 6.6 1.8 0 4.1-.4 5.8-1.2l-.3-3.3c-1.2.8-7.8 2.6-8-2zm-9.9-1.4c.1-1.1 1.3-3.5 3.5-3.8 2.1-.2 2.9 1.5 2.6 2.9z"/><path d="m104.2 53c-3.7 0-8.7-2.3-8.7-9.2 0-6.6 4.2-13.3 11.9-13.3 6 0 8.7 4.3 8.7 9.1 0 5-3.2 8.9-5.2 10 .2 0 1.7-.5 3.4-.5h1.4l-.7 3.5c-.3 0-2.6 0-5.5 0-2.3 0-2.3.4-5.3.4zm.7-3.8c4 0 6.5-5.4 6.5-9.6 0-2.5-1-5.3-4.5-5.3-4.1 0-6.6 5.5-6.6 9.6-.1 3 1.4 5.3 4.6 5.3z"/><path d="m149.4 30.2-4 4.7h-3.2l3-4.7zm-.1 14.7c.7-3 .6-8.5-5.4-8.5-5.8 0-9.2 5.1-9.2 9.9 0 4 2.2 6.6 6.8 6.6 1.8 0 4.1-.4 5.8-1.2l-.3-3.3c-1.2.8-7.8 2.6-8-2zm-10-1.4c.1-1.1 1.3-3.5 3.5-3.8 2.1-.2 2.9 1.5 2.5 2.9z"/></g></svg>