<svg enable-background="new 10 10.132 380 129.736" height="127" viewBox="10 10.132 353.99997 127" width="354" xmlns="http://www.w3.org/2000/svg" xmlns:xlink="http://www.w3.org/1999/xlink"><clipPath id="a"><path d="m9.5 10.5h380v129h-380z" height="129.736" transform="" width="380"/></clipPath><clipPath id="b"><path d="m9.5 10.5h380v129h-380z" height="129.736" transform="" width="380"/></clipPath><clipPath id="c"><path d="m9.5 10.5h380v129h-380z" height="129.736" transform="" width="380"/></clipPath><clipPath id="d"><path d="m9.5 10.5h380v129h-380z" height="129.736" transform="" width="380"/></clipPath><clipPath id="e"><path d="m9.5 10.5h380v129h-380z" height="129.736" transform="" width="380"/></clipPath><clipPath id="f"><path d="m9.5 10.5h380v129h-380z" height="129.736" transform="" width="380"/></clipPath><path clip-path="url(#a)" d="m10.5 12.5h354v127h-354z" fill="#fc0" transform="translate(-.50001 -2.368)"/><g fill="#039"><path clip-path="url(#b)" d="m10.5 12.5h354v127h-354zm176.988 121.768c95.437 0 172.821-25.941 172.821-57.918 0-31.979-77.385-57.902-172.821-57.902-95.433 0-172.809 25.924-172.809 57.902 0 31.975 77.376 57.918 172.809 57.918" transform="translate(-.50001 -2.368)"/><path clip-path="url(#c)" d="m146.5 95.857s.612-.53.694-.858c.229-1.067-.154-2.103-.154-2.103l-9.54-15.039v-.097l.042 15.807.272 1.254.518.68h-30.162l.497-.68.26-1.344-.012-41.164-.263-1.192-.493-.621h30.174l-.506.662-.26 1.317-.018 14.752 10.929-14.3s.226-.56.226-1.367c0-.508-.497-1.336-.497-1.336l30.03.034-13.067 18.582 15.748 25.166 1.179.904 1.341.586h-36.938z" transform="translate(-.50001 -2.368)"/><path clip-path="url(#d)" d="m91.426 93.688.267 1.406.49.844-30.146-.081.355-.858.108-1.433v-41.209l-.122-1.213-.353-.644h30.17l-.502.662-.255 1.317z" transform="translate(-.50001 -2.368)"/><path clip-path="url(#e)" d="m235.211 67.105 1.371-.25.84-.492-.024 12.721-.882-.516-1.305-.257-16.711.019v4.17h21.819l1.537-.306.756-.583.05 14.355-52.857-.103.484-.858.211-1.437v-41.211l-.223-1.431-.51-.87 52.682.099.041 13.81-.857-.364-1.434-.101h-21.699v3.669z" transform="translate(-.50001 -2.368)"/><path clip-path="url(#f)" d="m285.449 69.522-3.547 7.978h7.105zm-18.151-17.101s.224-.806.128-1.448c-.087-.628-.505-.868-.505-.868l40.885.012s-.421.228-.509.871c-.092.627.131 1.444.131 1.444l17.85 41.817.568.89.786.719-32.288.056s.495-1.044.444-1.479c-.051-.463-.211-1.06-.211-1.06l-2.097-5.875h-14.054l-2.298 5.874s-.218.051-.218.503c0 .88.529 1.623.529 1.623h-26.037s.896-.354 1.391-1.437c.404-.856.326-.806.326-.806z" transform="translate(-.50001 -2.368)"/></g></svg>