<svg enable-background="new 0 0 420 60" viewBox="0 0 420 60" xmlns="http://www.w3.org/2000/svg"><g fill="#fff"><path d="m51.3 4.4c5.9 0 10.7 4.8 10.7 10.7v29.9c0 5.9-4.8 10.7-10.7 10.7h-29.9c-5.9 0-10.7-4.8-10.7-10.7v-29.9c0-5.9 4.8-10.7 10.7-10.7zm2 20.8c0-2-.7-3.7-2.1-5.1s-3.1-2.1-5.1-2.1-3.7.7-5.1 2.1-2.1 3.1-2.1 5.1v7.3c0 1.6-.8 2.4-2.4 2.4s-2.4-.8-2.4-2.4v-6.8-.4c0-2-.7-3.7-2.1-5.1s-3.1-2.1-5.1-2.1-3.7.7-5.1 2.1-2.1 3.1-2.1 5.1v14.5c0 1.6.8 2.4 2.4 2.4s2.4-.8 2.4-2.4v-14.6c0-1.6.8-2.4 2.4-2.4s2.4.8 2.4 2.4v7.3c0 2 .7 3.7 2.1 5.1s3.1 2.1 5.1 2.1 3.7-.7 5.1-2.1 2.1-3.1 2.1-5.1v-.5-6.8c0-1.6.8-2.4 2.4-2.4s2.4.8 2.4 2.4v14.5c0 1.6.8 2.4 2.4 2.4s2.4-.8 2.4-2.4z"/><path d="m146 12c5.4 0 9.9 1.7 13.5 5.1s5.4 7.7 5.4 12.9-1.8 9.5-5.5 12.8c-3.6 3.4-8.2 5.1-13.8 5.1-5.3 0-9.7-1.7-13.2-5.1s-5.3-7.6-5.3-12.7c0-5.2 1.8-9.6 5.3-13 3.7-3.4 8.2-5.1 13.6-5.1zm.2 4.8c-4 0-7.3 1.3-9.9 3.8s-3.9 5.7-3.9 9.6c0 3.8 1.3 6.9 3.9 9.4s5.8 3.8 9.7 3.8 7.2-1.3 9.8-3.8c2.6-2.6 3.9-5.8 3.9-9.6 0-3.7-1.3-6.8-3.9-9.4s-5.8-3.8-9.6-3.8z"/><path d="m202.8 12.3h4.8v35.4h-4.4l-23.7-27.3v27.3h-4.8v-35.4h4.1l23.9 27.5v-27.5z"/><path d="m236.2 12c5.4 0 9.9 1.7 13.5 5.1s5.4 7.7 5.4 12.9-1.8 9.4-5.4 12.8-8.2 5.1-13.7 5.1c-5.3 0-9.7-1.7-13.2-5.1s-5.3-7.6-5.3-12.7c0-5.2 1.8-9.6 5.3-13 3.5-3.3 7.9-5.1 13.4-5.1zm.2 4.8c-4 0-7.3 1.3-9.9 3.8s-3.9 5.7-3.9 9.6c0 3.8 1.3 6.9 3.9 9.4s5.8 3.8 9.7 3.8 7.2-1.3 9.8-3.8c2.6-2.6 3.9-5.7 3.9-9.5 0-3.7-1.3-6.8-3.9-9.4s-5.8-3.9-9.6-3.9z"/><path d="m265.1 47.7v-35.4h11.2c3.4 0 6.1.9 8.1 2.7s3 4.3 3 7.3c0 2.1-.5 3.9-1.5 5.5s-2.4 2.7-4.2 3.5c-1.8.7-4.4 1.1-7.7 1.1h-3.7v15.3zm10.3-30.9h-5.2v11.1h5.5c2.1 0 3.6-.5 4.8-1.5 1.1-1 1.7-2.4 1.7-4.2 0-3.6-2.3-5.4-6.8-5.4z"/><path d="m322.6 45.2c-.7-1-1.7-2.5-3-4.5-2-3.2-3.5-5.4-4.6-6.7-.8-.9-1.5-1.6-2.3-2.3.4-.1.8-.2 1.1-.4 1.8-.7 3.2-1.9 4.2-3.5s1.5-3.4 1.5-5.5c0-3.1-1-5.5-3-7.3s-4.7-2.7-8.1-2.7h-11.2v35.4h5.1v-15.3h2.4c1 .1 1.7.2 2.2.5.7.4 1.5 1 2.4 1.9s1.8 2 2.9 3.5l1.7 2.8 1.6 2.6 1 1.4c.2.2.3.3.3.4l1.5 2.3h6zm-20.1-28.4h5.2c4.5 0 6.7 1.8 6.7 5.4 0 1.8-.6 3.2-1.7 4.2s-2.7 1.5-4.8 1.5h-5.5v-11.1z"/><path d="m332.6 12.3h5.1v35.4h-5.1z"/><path d="m379 39.4v5.6c-3.7 2-7.9 3-12.8 3-3.9 0-7.3-.8-10-2.4s-4.9-3.7-6.5-6.5-2.4-5.8-2.4-9c0-5.1 1.8-9.4 5.5-12.9 3.6-3.5 8.1-5.2 13.5-5.2 3.7 0 7.8 1 12.3 2.9v5.4c-4.1-2.3-8.1-3.5-12-3.5-4 0-7.4 1.3-10 3.8-2.7 2.5-4 5.7-4 9.5 0 3.9 1.3 7 3.9 9.5s6 3.7 10 3.7c4.3.1 8.4-1.2 12.5-3.9z"/><path d="m388.6 12.3h20.1v4.5h-15v10.8h14.5v4.5h-14.5v11h15.5v4.5h-20.6z"/><path d="m98.9 39.5 10.6-27.2h7.7v35.4h-5v-29.6h-.1l-11.8 29.6h-3.2l-11.6-29.6h-.1v29.6h-4.8v-35.4h7.7z"/></g></svg>