<svg height="50" viewBox="0 0 460 50" width="460" xmlns="http://www.w3.org/2000/svg"><path d="m30.9 23.6c0 4.2-1.4 7.8-4 10.5-2.6 2.6-6.3 4-10.5 4s-7.9-1.4-10.5-4-4-6.3-4-10.5v-7.4c.1-4.2 1.5-7.8 4.1-10.4s6.3-4 10.5-4 7.8 1.4 10.5 4c2.6 2.6 4 6.3 4 10.5v7.3zm-7.1-7.9c0-4.3-2.8-7.4-7.4-7.4-4.7 0-7.4 2.7-7.4 7.4v8.5c0 4.6 2.7 7.3 7.4 7.3s7.4-2.7 7.4-7.3zm14.6-8c0-1.9 1.2-3.7 3-4.2 3.4-1.1 7-1.8 10.8-1.8 4.1 0 7.5 1.3 10 3.9 2.5 2.5 3.9 5.9 3.9 9.9v8.7c0 4.1-1.3 7.6-3.8 10.1-2.5 2.6-5.5 3.7-9.6 3.7-2.3 0-5-.8-7.2-1.8v8.4c0 2-1.6 3.6-3.5 3.6-2 0-3.6-1.6-3.6-3.6zm20.5 7.3c0-4.2-2.5-6.7-6.7-6.7-2.3 0-4.5.3-6.7.8v20c1.9 1.6 4.2 2.4 6.7 2.4 4.3 0 6.7-2.4 6.7-6.7zm20.7 8.2c0 2.8.5 4.7 1.4 5.9 1.2 1.5 3 2.3 5.3 2.3 2.6 0 5.1-.8 7.4-1.8.5-.2 1-.3 1.4-.3 1.7 0 3.4 1.4 3.4 3.2 0 1.3-.5 2.5-1.8 3.1-3.3 1.6-6.8 2.3-10.5 2.3-4 0-7.4-1.3-10-3.9-2.5-2.5-3.8-5.9-3.8-10v-8.7c0-4 1.3-7.4 3.8-9.9 2.6-2.5 6-3.9 10-3.9 4.1 0 7.5 1.3 10 3.9 2.5 2.5 3.9 5.9 3.9 9.9v3.2c0 2.5-2 4.5-4.5 4.5h-16zm13.4-6.5c0-5.7-2.3-8.4-6.7-8.4-4.3 0-6.7 2.6-6.7 8.4zm35.1 17.8c0 2 1.5 3.6 3.5 3.6s3.6-1.6 3.6-3.6v-19c0-4-1.4-7.4-3.9-9.9s-5.9-3.9-10-3.9c-3.7 0-7.4.6-10.7 1.8-1.9.6-3 2.3-3 4.2v26.7c0 2 1.6 3.6 3.6 3.6 1.9 0 3.5-1.6 3.5-3.6v-25.2c2.1-.6 4.4-.9 6.7-.9 4.3 0 6.7 2.5 6.7 6.7zm26.5-10.8c2.6.9 4.6 1.7 4.6 4.3 0 2.3-1.7 3.6-5 3.6-3 0-5.3-.6-7.2-1.6-.5-.2-1.1-.4-1.6-.4-1.9 0-3.4 1.7-3.4 3.4 0 1.4.8 2.6 2.1 3.2 2.5 1.2 5.8 1.9 9.9 1.9 7.4 0 12.3-4.8 12.3-10.8 0-5-2.8-8.1-7.3-9.6l-6.8-2.2c-1.4-.5-2.8-1.6-2.8-3.4 0-2.3 1.9-3.7 4.7-3.7 2.3 0 5.1.6 6.8 1.4.5.2 1.2.3 1.7.3 1.9 0 3.3-1.5 3.3-3.3 0-1.4-.9-2.7-2.3-3.2-2.3-1-4.7-1.7-9.4-1.7-6.9 0-11.9 4.3-11.9 10.4 0 5.2 2.9 8 6.6 9.4zm46.6 0c0 4.2-1.4 7.8-4 10.5-2.6 2.6-6.3 4-10.5 4s-7.9-1.4-10.5-4-4-6.3-4-10.5v-7.4c0-4.2 1.4-7.8 4-10.5 2.6-2.6 6.3-4 10.5-4s7.8 1.4 10.5 4c2.6 2.6 4 6.3 4 10.5zm-7.1-8c0-4.3-2.8-7.4-7.4-7.4-4.7 0-7.4 2.7-7.4 7.4v8.5c0 4.6 2.7 7.3 7.4 7.3s7.4-2.7 7.4-7.3zm34.7 15c-2.1.5-4.4.8-6.7.8-4.2 0-6.7-2.4-6.7-6.7v-19.4c0-2-1.6-3.6-3.5-3.6-2 0-3.6 1.6-3.6 3.6v18.9c0 4.1 1.2 7.7 3.7 10.1 2.5 2.5 6.1 3.7 10.1 3.7 3.8 0 7.4-.6 10.8-1.8 1.8-.6 3-2.3 3-4.2v-26.7c0-2-1.6-3.6-3.6-3.6s-3.5 1.6-3.5 3.6zm15.8 3.8c0 2 1.6 3.6 3.6 3.6 1.9 0 3.5-1.6 3.5-3.6v-23c0-1.7 1.5-3.2 3.2-3.2 1.1 0 2.3.3 3.4.5.6.1.8.1 1.2.1 2 0 3.4-1.4 3.4-3.3 0-1.6-1.2-3-2.8-3.4-1.7-.3-3.4-.6-5.2-.6-5.9 0-10.3 4.4-10.3 10.3zm21.7-10.2c0 4.1 1.3 7.5 3.8 10 2.6 2.6 6 3.9 10 3.9 3.4 0 6.5-.8 9.5-2.2 1.3-.6 2.1-1.9 2.1-3.2 0-1.9-1.6-3.3-3.3-3.3-.6 0-1 .1-1.5.3-2 1-4.5 1.7-6.8 1.7-4.2 0-6.7-2.4-6.7-6.7v-9.8c0-4.2 2.5-6.7 6.7-6.7 2.3 0 4.5.8 6.5 1.7.5.2 1 .4 1.7.4 1.9 0 3.4-1.5 3.4-3.2 0-1.3-.7-2.6-2-3.2-3-1.4-6.2-2.2-9.6-2.2-4 0-7.4 1.3-10 3.9-2.5 2.5-3.8 5.9-3.8 9.9zm37.4-1c0 2.8.5 4.7 1.4 5.9 1.2 1.5 3 2.3 5.3 2.3 2.6 0 5.1-.8 7.4-1.8.5-.2 1-.3 1.4-.3 1.7 0 3.4 1.4 3.4 3.2 0 1.3-.5 2.5-1.8 3.1-3.3 1.6-6.8 2.3-10.5 2.3-4 0-7.4-1.3-10-3.9-2.5-2.5-3.8-5.9-3.8-10v-8.7c0-4 1.3-7.4 3.8-9.9 2.5-2.6 6-3.9 10-3.9 4.1 0 7.5 1.3 10 3.9 2.5 2.5 3.9 5.9 3.9 9.9v3.2c0 2.5-2 4.5-4.5 4.5h-16zm13.4-6.5c0-5.7-2.3-8.4-6.7-8.4-4.3 0-6.7 2.6-6.7 8.4zm19.4 13.1c-2.3-1-5.1.1-6.1 2.4-.9 2.2.2 5 2.5 6s5-.2 5.9-2.4c1.1-2.2.1-5-2.3-6m9.9-4.7c0 4.1 1.3 7.5 3.8 10 2.5 2.6 6 3.9 10 3.9 3.4 0 6.5-.8 9.5-2.2 1.3-.6 2.1-1.9 2.1-3.2 0-1.9-1.6-3.3-3.3-3.3-.5 0-1 .1-1.5.3-2 1-4.5 1.7-6.7 1.7-4.2 0-6.7-2.4-6.7-6.7v-9.7c0-4.2 2.5-6.7 6.7-6.7 2.3 0 4.5.8 6.5 1.6.5.2 1 .4 1.6.4 1.9 0 3.4-1.5 3.4-3.2 0-1.3-.7-2.5-2-3.2-3-1.4-6.2-2.2-9.6-2.2-4 0-7.4 1.3-10 3.9-2.5 2.5-3.8 5.9-3.8 9.9zm59.2-.6c0 4.2-1.4 7.9-4 10.5s-6.3 4-10.5 4-7.8-1.4-10.5-4c-2.6-2.6-4-6.3-4-10.5v-7.4c0-4.2 1.4-7.8 4-10.5 2.6-2.6 6.3-4 10.5-4s7.9 1.4 10.5 4 4 6.3 4 10.5zm-7.1-7.9c0-4.3-2.8-7.4-7.4-7.4-4.7 0-7.4 2.7-7.4 7.4v8.5c0 4.6 2.7 7.3 7.4 7.3s7.4-2.7 7.4-7.3zm52.4 18.8c0 2 1.5 3.6 3.5 3.6s3.6-1.6 3.6-3.6v-19.7c0-7.4-5.6-13-13-13-3.4 0-6.8 1-9.6 2.8-2.1-1.8-5-2.8-8.3-2.8-4 0-7.5.6-11.1 2-1.8.7-3 2.3-3 4.2v26.5c0 2 1.6 3.6 3.6 3.6 1.9 0 3.5-1.6 3.5-3.6v-25.2c2.2-.6 3.7-1 6.2-1 3 0 5.7 1 5.7 5v21.1c0 2 1.6 3.6 3.5 3.6 2 0 3.6-1.6 3.6-3.6v-24.3c1.7-1.1 3.8-1.8 5.9-1.8 3.2 0 5.9 2.7 5.9 5.9z"/></svg>