<svg height="40.3" viewBox="0 0 200 40.3" width="200" xmlns="http://www.w3.org/2000/svg" xmlns:xlink="http://www.w3.org/1999/xlink"><clipPath id="a"><path d="m.2 0h199.6v39.9h-199.6z"/></clipPath><clipPath id="b"><path d="m.2 0h199.6v39.9h-199.6z"/></clipPath><clipPath id="c"><path d="m.2 0h199.6v39.9h-199.6z"/></clipPath><path d="m69.5 29.2v4.6h-19v-4.6h6.8v-18.4h-6.8v-4.6h19v4.6h-6.8v18.4z"/><path clip-path="url(#a)" d="m37.4 6.2h-5.2l-3.8 21.8-4.4-20.2c-.2-1.4-.8-1.6-2-1.6h-2.8c-1.2 0-1.8.4-2 1.6l-4.4 20.2-3.8-21.8h-5.6l5.4 26.2c.2 1.2.6 1.4 2 1.4h3.8c1.2 0 1.6-.2 2-1.4l4.2-19 4.2 19c.2 1.2.6 1.4 2 1.4h3.6c1.2 0 1.8-.2 2-1.4zm2.8 33.7h-40v-39.9h39.9v39.9z"/><path clip-path="url(#b)" d="m105.9 26.6c0 3 .2 5.2.6 7h5.4c-.2-1.4-.4-4-.4-7.4-.2-4-1.4-4.6-4.2-5.2 3.2-.6 4.6-2 4.6-7 0-4-.6-5.6-1.8-6.6-.8-.8-2.2-1.2-4.4-1.2h-16.8v27.6h5.6v-10.8h7.8c1.6 0 2.2.2 2.8.6s.8 1 .8 3m-11.4-8v-7.6h9c1.2 0 1.6.2 1.8.4.4.4.8 1 .8 3.4s-.4 3.2-.8 3.6c-.2.2-.6.4-1.8.4zm25.4 21.3h-40v-39.9h39.9v39.9z"/><path clip-path="url(#c)" d="m168.6 6.2v27.6h13.6c3.8 0 6-.6 7.6-2 2-1.8 3-5 3-11.8s-1-10-3-11.8c-1.6-1.4-3.8-2-7.6-2zm18.6 13.8c0 6-.4 7.4-1.6 8.2-.8.6-1.8.8-3.8.8h-7.6v-18.2h7.6c2 0 3 0 3.8.8 1.2 1 1.6 2.4 1.6 8.4m12.6 19.9h-39.9v-39.9h39.9z"/><path d="m127.3 10.8v-4.6h23.6v8.8h-5v-4.2h-9.6v6.6h7.6v4.4h-7.6v7.4h9.8v-4.8h5v9.4h-23.8v-4.6h3.8v-18.4z"/></svg>