<svg height="143.58057mm" viewBox="0 0 267.40555 143.58057" width="267.40555mm" xmlns="http://www.w3.org/2000/svg" xmlns:xlink="http://www.w3.org/1999/xlink"><marker id="a" orient="auto" overflow="visible" refX="0.0" refY="0.0"><path d="m5.77 0-8.65 5v-10z" fill-rule="evenodd" stroke="#000" stroke-width="1pt" transform="scale(-.4)"/></marker><marker id="b" orient="auto" overflow="visible" refX="0" refY="0"><path d="m5.77 0-8.65 5v-10z" fill-rule="evenodd" stroke="#000" stroke-width="1pt" transform="scale(-.4)"/></marker><marker id="c" orient="auto" overflow="visible" refX="0" refY="0"><path d="m5.77 0-8.65 5v-10z" fill-rule="evenodd" stroke="#000" stroke-width="1pt" transform="scale(-.4)"/></marker><marker id="d" orient="auto" overflow="visible" refX="0" refY="0"><path d="m5.77 0-8.65 5v-10z" fill-rule="evenodd" stroke="#000" stroke-width="1pt" transform="scale(-.4)"/></marker><marker id="e" orient="auto" overflow="visible" refX="0" refY="0"><path d="m5.77 0-8.65 5v-10z" fill-rule="evenodd" stroke="#000" stroke-width="1pt" transform="scale(-.4)"/></marker><marker id="f" orient="auto" overflow="visible" refX="0" refY="0"><path d="m5.77 0-8.65 5v-10z" fill-rule="evenodd" stroke="#000" stroke-width="1pt" transform="scale(-.4)"/></marker><marker id="g" orient="auto" overflow="visible" refX="0" refY="0"><path d="m5.77 0-8.65 5v-10z" fill-rule="evenodd" stroke="#000" stroke-width="1pt" transform="scale(-.4)"/></marker><marker id="h" orient="auto" overflow="visible" refX="0" refY="0"><path d="m5.77 0-8.65 5v-10z" fill-rule="evenodd" stroke="#000" stroke-width="1pt" transform="scale(-.4)"/></marker><marker id="i" orient="auto" overflow="visible" refX="0" refY="0"><path d="m5.77 0-8.65 5v-10z" fill-rule="evenodd" stroke="#000" stroke-width="1pt" transform="scale(-.4)"/></marker><g transform="translate(-3.880561 -107.28114)"><text style="font-weight:bold;font-size:10.583333;font-family:sans-serif;letter-spacing:0;word-spacing:0;stroke-width:.264583" x="268.43951" y="123.67271"><tspan dy="-4.76" font-family="sans-serif" font-weight="bold" letter-spacing="-.43920839" stroke-width=".264583" text-anchor="end" x="268.00031" y="123.67271">Home Assistant</tspan><tspan font-family="sans-serif" font-weight="bold" letter-spacing="-.43920839" stroke-width=".264583" text-anchor="end" x="268.00031" y="130.28729">Core Architecture</tspan></text><path d="m204.7749 165.25009h42v23h-42z" fill="#cfe2f3" stroke="#000" stroke-width=".865"/><text font-family="sans-serif" font-size="6.049778" letter-spacing="0" stroke-width=".151244" transform="scale(.9650764 1.0361874)" word-spacing="0" x="225.69725" y="173.02853"><tspan stroke-width=".151244" x="225.69725" y="173.02853">Timer</tspan></text><path d="m114.79425 164.52242h42v23.000002h-42z" fill="#cfe2f3" stroke="#000" stroke-width=".865"/><text font-family="sans-serif" font-size="6.049778" letter-spacing="0" stroke-width=".151244" transform="scale(.9650764 1.0361874)" word-spacing="0" x="125.60648" y="172.14389"><tspan stroke-width=".151244" x="125.60648" y="172.14389">Event Bus</tspan></text><path d="m114.37717 109.73598h42v23.000002h-42z" fill="#cfe2f3" stroke="#000" stroke-width=".865"/><text font-family="sans-serif" font-size="6.049778" letter-spacing="0" stroke-width=".151244" transform="scale(.9650764 1.0361874)" word-spacing="0" x="140.76022" y="118.67937"><tspan dy="-2.22" stroke-width=".151244" text-anchor="middle" x="140.76022" y="118.67937">State</tspan><tspan stroke-width=".151244" text-anchor="middle" x="140.76022" y="122.46048">Machine</tspan></text><text font-family="sans-serif" font-size="5.802848" letter-spacing="0" stroke-width=".145071" transform="scale(.9748707 1.0257771)" word-spacing="0" x="76.203026" y="156.70473"><tspan dy="-3.894243" stroke-width=".145071" x="76.203026" y="156.70473">listen for events/</tspan><tspan stroke-width=".145071" x="76.203026" y="160.33151">fire event</tspan></text><path d="m114.9117 221.45465h42v23.000004h-42z" fill="#cfe2f3" stroke="#000" stroke-width=".865"/><text font-family="sans-serif" font-size="6.049778" letter-spacing="0" stroke-width=".151244" transform="scale(.96507639 1.0361874)" word-spacing="0" x="141.31412" y="226.4964"><tspan dy="-2.22" stroke-width=".151244" text-anchor="middle" x="141.31412" y="226.4964">Service</tspan><tspan stroke-width=".151244" text-anchor="middle" x="141.31412" y="230.27751">Registry</tspan></text><path d="m22.322157 143.95389h35.01231v34.210499h-35.01231z" fill="none"/><path d="m7.889597 110.62202h60.937454v135.02786h-60.937454z" fill="#9fc5e8" stroke="#000" stroke-dashoffset=".500787" stroke-linejoin="round" stroke-width="1.065"/><rect height="15.271934" ry="2.941702" style="fill:#cfe2f3;stroke:#000;stroke-width:.795021;stroke-linecap:round;stroke-linejoin:round;stroke-dashoffset:.500787" width="55.228729" x="10.810782" y="124.82534"/><text font-family="sans-serif" font-size="6.462282" letter-spacing="0" stroke-width=".161557" transform="scale(.94728752 1.0556457)" word-spacing="0" x="32.544708" y="127.35789"><tspan stroke-width=".161557" x="32.544708" y="127.35789">Light</tspan></text><rect height="15.271934" ry="2.941702" style="fill:#cfe2f3;stroke:#000;stroke-width:.795021;stroke-linecap:round;stroke-linejoin:round;stroke-dashoffset:.500787" width="55.228729" x="10.61033" y="158.23402"/><rect height="15.271934" ry="2.941702" style="fill:#cfe2f3;stroke:#000;stroke-width:.795021;stroke-linecap:round;stroke-linejoin:round;stroke-dashoffset:.500787" width="55.228729" x="10.743965" y="226.1205"/><rect height="15.271934" ry="2.941702" style="fill:#cfe2f3;stroke:#000;stroke-width:.795021;stroke-linecap:round;stroke-linejoin:round;stroke-dashoffset:.500787" width="55.228729" x="10.743966" y="192.17728"/><text font-family="sans-serif" font-size="6.462282" letter-spacing="0" stroke-width=".161557" transform="scale(.94728752 1.0556457)" word-spacing="0" x="20.24564" y="223.22211"><tspan stroke-width=".161557" x="20.24564" y="223.22211">Many more...</tspan></text><text font-family="sans-serif" font-size="6.462282" letter-spacing="0" stroke-width=".161557" transform="scale(.94728752 1.0556457)" word-spacing="0" x="17.28315" y="191.70107"><tspan stroke-width=".161557" x="17.28315" y="191.70107">Device Tracker</tspan></text><text font-family="sans-serif" font-size="6.462282" letter-spacing="0" stroke-width=".161557" transform="scale(.94728752 1.0556457)" word-spacing="0" x="30.40275" y="159.92683"><tspan stroke-width=".161557" x="30.40275" y="159.92683">Switch</tspan></text><text font-family="sans-serif" font-size="5.866845" letter-spacing="0" stroke-width=".146671" transform="scale(1.0066282 .9934154)" word-spacing="0" x="11.098916" y="120.1047"><tspan stroke-width=".146671" x="11.098916" y="120.1047">Components</tspan></text><text font-family="sans-serif" font-size="5.802848" letter-spacing="0" stroke-width=".145071" transform="scale(.97487067 1.0257771)" word-spacing="0" x="76.623322" y="116.72686"><tspan stroke-width=".145071" x="76.623322" y="116.72686">set state</tspan></text><g stroke="#000"><path d="m134.36663 161.72833-.0146-1.20582-.0178-27.58952" fill="none" marker-start="url(#a)" stroke-miterlimit="8.3" stroke-width=".878288"/><path d="m143.6486 190.71339.0168 1.27138.0205 29.08959" fill="none" marker-start="url(#b)" stroke-miterlimit="8.3" stroke-width=".966428"/><path d="m159.711 175.37009 1.89837-.0147 43.43538-.0179" fill="none" marker-start="url(#c)" stroke-miterlimit="8.3" stroke-width="1.103933"/><path d="m111.54159 166.92655-1.77427.0152-40.595547.0186" fill="none" marker-start="url(#d)" stroke-miterlimit="8.3" stroke-width="1.089121"/><path d="m72.342632 186.06141 1.764254-.0153 40.366654-.0186" fill="none" marker-start="url(#e)" stroke-miterlimit="8.3" stroke-width="1.087798"/><path d="m111.39173 223.45319-1.76627.0153-40.412633.0187" fill="none" marker-start="url(#f)" stroke-miterlimit="8.3" stroke-width="1.088713"/><path d="m72.431037 242.88507 1.774682-.0152 40.605411-.0186" fill="none" marker-start="url(#g)" stroke-miterlimit="8.3" stroke-width="1.089042"/></g><text font-family="sans-serif" font-size="5.802848" letter-spacing="0" stroke-width=".145071" transform="scale(.97487067 1.0257771)" word-spacing="0" x="76.486244" xml:space="preserve" y="175.48161"><tspan dy="-3.89" stroke-width=".145071" x="76.486244" y="175.48161">call event </tspan><tspan stroke-width=".145071" x="76.486244" y="179.1084">listeners</tspan></text><text font-family="sans-serif" font-size="5.802848" letter-spacing="0" stroke-width=".145071" transform="scale(.97487066 1.0257771)" word-spacing="0" x="76.617371" y="211.42024"><tspan dy="-3.89" stroke-width=".145071" x="76.617371" y="211.42024">publish</tspan><tspan stroke-width=".145071" x="76.617371" y="215.04703">service</tspan></text><text font-family="sans-serif" font-size="5.802848" letter-spacing="0" stroke-width=".145071" transform="scale(.97487066 1.0257771)" word-spacing="0" x="76.617371" y="229.13786"><tspan dy="-3.89" stroke-width=".145071" x="76.617371" y="229.13786">call</tspan><tspan stroke-width=".145071" x="76.617371" y="232.76465">service</tspan></text><path d="m121.36058 218.55632-.0146-1.28211-.0178-29.33525" fill="none" marker-start="url(#h)" stroke="#000" stroke-miterlimit="8.3" stroke-width=".904741"/><path d="m120.5771 197.74188h1.436573v12.76212h-1.436573z" fill="#fffff3"/><text font-family="sans-serif" font-size="5.802848" letter-spacing="0" stroke-width=".145071" transform="scale(.97487066 1.0257771)" word-spacing="0" x="124.50616" y="200.86783"><tspan dy="-3.89" stroke-width=".145071" text-anchor="middle" x="124.50616" y="200.86783">call_service</tspan><tspan stroke-width=".145071" text-anchor="middle" x="124.50616" y="204.49461">events</tspan></text><path d="m111.70898 121.35631-1.77986.0152-40.723236.0186" fill="none" marker-start="url(#i)" stroke="#000" stroke-miterlimit="8.3" stroke-width="1.089787"/><text font-family="sans-serif" font-size="5.802848" letter-spacing="0" stroke-width=".145071" transform="scale(.97487066 1.0257771)" word-spacing="0" x="149.49513" y="200.99426"><tspan dy="-3.89" stroke-width=".145071" x="149.49513" y="200.99426">service_called</tspan><tspan stroke-width=".145071" x="149.49513" y="204.62105">events</tspan></text><text font-family="sans-serif" font-size="5.802848" letter-spacing="0" stroke-width=".145071" transform="scale(.97487066 1.0257771)" word-spacing="0" x="166.82645" y="180.94534"><tspan dy="-3.89" stroke-width=".145071" x="166.82645" y="180.94534">time_changed</tspan><tspan stroke-width=".145071" x="166.82645" y="184.57213">events</tspan></text><text font-family="sans-serif" font-size="5.802848" letter-spacing="0" stroke-width=".145071" transform="scale(.97487066 1.0257771)" word-spacing="0" x="140.479" y="145.89252"><tspan dy="-3.89" stroke-width=".145071" x="140.479" y="145.89252">state_changed</tspan><tspan stroke-width=".145071" x="140.479" y="149.5193">events</tspan></text></g></svg>