<svg height="150.39879mm" viewBox="0 0 223.45195 150.39879" width="223.45195mm" xmlns="http://www.w3.org/2000/svg" xmlns:xlink="http://www.w3.org/1999/xlink"><marker id="a" orient="auto" overflow="visible" refX="0" refY="0"><path d="m5.77 0-8.65 5v-10z" fill-rule="evenodd" stroke="#000" stroke-width="1pt" transform="scale(-.4)"/></marker><marker id="b" orient="auto" overflow="visible" refX="0" refY="0"><path d="m5.77 0-8.65 5v-10z" fill-rule="evenodd" stroke="#000" stroke-width="1pt" transform="scale(-.4)"/></marker><marker id="c" orient="auto" overflow="visible" refX="0" refY="0"><path d="m5.77 0-8.65 5v-10z" fill-rule="evenodd" stroke="#000" stroke-width="1pt" transform="scale(-.4)"/></marker><marker id="d" orient="auto" overflow="visible" refX="0" refY="0"><path d="m5.77 0-8.65 5v-10z" fill-rule="evenodd" stroke="#000" stroke-width="1pt" transform="scale(-.4)"/></marker><marker id="e" orient="auto" overflow="visible" refX="0" refY="0"><path d="m5.77 0-8.65 5v-10z" fill-rule="evenodd" stroke="#000" stroke-width="1pt" transform="scale(-.4)"/></marker><marker id="f" orient="auto" overflow="visible" refX="0" refY="0"><path d="m5.77 0-8.65 5v-10z" fill-rule="evenodd" stroke="#000" stroke-width="1pt" transform="scale(-.4)"/></marker><marker id="g" orient="auto" overflow="visible" refX="0" refY="0"><path d="m5.77 0-8.65 5v-10z" fill-rule="evenodd" stroke="#000" stroke-width="1pt" transform="scale(-.4)"/></marker><marker id="h" orient="auto" overflow="visible" refX="0" refY="0"><path d="m5.77 0-8.65 5v-10z" fill-rule="evenodd" stroke="#000" stroke-width="1pt" transform="scale(-.4)"/></marker><marker id="i" orient="auto" overflow="visible" refX="0" refY="0"><path d="m5.77 0-8.65 5v-10z" fill-rule="evenodd" stroke="#000" stroke-width="1pt" transform="scale(-.4)"/></marker><g transform="translate(-10.588714 -116.71881)"><path d="m10.997826 219.45093h222.7041v41.217026h-222.7041z" fill="#9fc5e8" stroke="#000" stroke-dashoffset=".500787" stroke-linejoin="round" stroke-width=".677472"/><rect height="24.349827" ry="4.690299" style="fill:#cfe2f3;stroke:#000;stroke-width:.992382;stroke-linecap:round;stroke-linejoin:round;stroke-dashoffset:.500787" width="53.971424" x="175.33235" y="233.58411"/><path d="m10.829567 116.95966h54.339752v21.388721h-54.339752z" fill="#9fc5e8" stroke="#000" stroke-dashoffset=".500787" stroke-linejoin="round" stroke-width=".481705"/><path d="m22.322157 143.95389h35.01231v34.210499h-35.01231z" fill="none"/><rect height="24.349825" ry="4.690298" style="fill:#cfe2f3;stroke:#000;stroke-width:.992382;stroke-linecap:round;stroke-linejoin:round;stroke-dashoffset:.500787" width="53.971424" x="16.183468" y="233.5192"/><text font-family="sans-serif" font-size="6.462282" letter-spacing="0" stroke-width=".161557" transform="scale(.94728752 1.0556457)" word-spacing="0" x="36.045589" y="235.3748"><tspan stroke-width=".161557" x="36.045589" y="235.3748">Lights</tspan></text><path d="m168.96722 166.03337-.0146-1.15536-.0178-26.4352" fill="none" marker-start="url(#a)" stroke="#000" stroke-miterlimit="8.3" stroke-width=".859718"/><path d="m182.86476 141.59973.0181 1.12869.022 25.82477" fill="none" marker-start="url(#b)" stroke="#000" stroke-miterlimit="8.3" stroke-width=".944061"/><path d="m179.30098 117.29016h54.339752v21.388721h-54.339752z" fill="#9fc5e8" stroke="#000" stroke-dashoffset=".500787" stroke-linejoin="round" stroke-width=".481705"/><text font-family="sans-serif" font-size="6.049778" letter-spacing="0" stroke-width=".151244" transform="scale(.9650764 1.0361874)" word-spacing="0" x="214.21021" y="125.508"><tspan stroke-width=".151244" text-anchor="middle" x="214.21021" y="125.508">Smart Home</tspan></text><path d="m117.56172 117.22337h54.339752v21.388721h-54.339752z" fill="#9fc5e8" stroke="#000" stroke-dashoffset=".500787" stroke-linejoin="round" stroke-width=".481705"/><text font-family="sans-serif" font-size="6.049778" letter-spacing="0" stroke-width=".151244" transform="scale(.96507639 1.0361874)" word-spacing="0" x="149.95982" y="125.70148"><tspan dy="-3.499998" stroke-width=".151244" text-anchor="middle" x="149.95982" y="125.70148">Home</tspan><tspan stroke-width=".151244" text-anchor="middle" x="149.95982" y="129.48259">Automation</tspan></text><text font-family="sans-serif" font-size="6.049778" letter-spacing="0" stroke-width=".151244" transform="scale(.96507639 1.0361874)" word-spacing="0" x="39.138622" y="125.46329"><tspan stroke-width=".151244" text-anchor="middle" x="39.138622" y="125.46329">User</tspan></text><path d="m114.0517 127.63726-2.04274.0152-46.737832.0186" fill="none" marker-start="url(#c)" stroke="#000" stroke-miterlimit="8.3" stroke-width="1.167494"/><text font-family="sans-serif" font-size="6.049778" letter-spacing="0" stroke-width=".151244" transform="scale(.96507639 1.0361874)" word-spacing="0" x="93.829681" y="118.77126"><tspan stroke-width=".151244" text-anchor="middle" x="93.829681" y="118.77126">Configuration</tspan></text><path d="m10.98922 168.71695h222.23811v20.90729h-222.23811z" fill="#9fc5e8" stroke="#000" stroke-dashoffset=".500787" stroke-linejoin="round" stroke-width=".482"/><text font-family="sans-serif" font-size="6.049778" letter-spacing="0" stroke-width=".151244" transform="scale(.96507639 1.0361874)" word-spacing="0" x="126.84965" y="174.99847"><tspan stroke-width=".151244" text-anchor="middle" x="126.84965" y="174.99847">Home Control</tspan></text><text font-family="sans-serif" font-size="6.049778" letter-spacing="0" stroke-width=".151244" transform="scale(.96507639 1.0361874)" word-spacing="0" x="44.333305" y="144.40453"><tspan stroke-width=".151244" text-anchor="middle" x="44.333305" y="144.40453">Commands</tspan></text><text font-family="sans-serif" font-size="6.049778" letter-spacing="0" stroke-width=".151244" transform="scale(.96507639 1.0361874)" word-spacing="0" x="32.77951" y="157.53647"><tspan stroke-width=".151244" text-anchor="middle" x="32.77951" y="157.53647">Information</tspan></text><path d="m13.434252 141.35309.01792 1.13976.02188 26.07814" fill="none" marker-start="url(#d)" stroke="#000" stroke-miterlimit="8.3" stroke-width=".945229"/><path d="m61.946656 165.98792-.01452-1.1553-.0177-26.43364" fill="none" marker-start="url(#e)" stroke="#000" stroke-miterlimit="8.3" stroke-width=".85723"/><rect height="24.349827" ry="4.690299" style="fill:#cfe2f3;stroke:#000;stroke-width:.992382;stroke-linecap:round;stroke-linejoin:round;stroke-dashoffset:.500787" width="53.971424" x="92.93354" y="233.9621"/><text font-family="sans-serif" font-size="6.462282" letter-spacing="0" stroke-width=".161557" transform="scale(.94728752 1.0556457)" word-spacing="0" x="112.86232" y="235.3748"><tspan stroke-width=".161557" x="112.86232" y="235.3748">Switches</tspan></text><text font-family="sans-serif" font-size="6.462282" letter-spacing="0" stroke-width=".161557" transform="scale(.94728752 1.0556457)" word-spacing="0" x="192.84842" y="235.36662"><tspan stroke-width=".161557" x="192.84842" y="235.36662">Many more...</tspan></text><text font-family="sans-serif" font-size="6.049778" letter-spacing="0" stroke-width=".151244" transform="scale(.96507639 1.0361874)" word-spacing="0" x="41.44257" y="221.21707"><tspan stroke-width=".151244" text-anchor="middle" x="41.44257" y="221.21707">Internet of Things</tspan></text><path d="m120.63407 141.54543.018 1.13664.0219 26.00672" fill="none" marker-start="url(#f)" stroke="#000" stroke-miterlimit="8.3" stroke-width=".944897"/><path d="m69.84404 192.49.0168 1.13361.0205 25.93741" fill="none" marker-start="url(#g)" stroke="#000" stroke-miterlimit="8.3" stroke-width=".912566"/><path d="m230.8668 166.05561-.0146-1.15201-.0178-26.35835" fill="none" marker-start="url(#h)" stroke="#000" stroke-miterlimit="8.3" stroke-width=".858468"/><path d="m173.62583 217.27194-.0146-1.16203-.0178-26.58762" fill="none" marker-start="url(#i)" stroke="#000" stroke-miterlimit="8.3" stroke-width=".862193"/><g font-family="sans-serif" letter-spacing="0" word-spacing="0"><text font-size="6.049778" stroke-width=".151244" transform="scale(.96507639 1.0361874)" x="154.9097" y="143.75829"><tspan stroke-width=".151244" text-anchor="middle" x="154.9097" y="143.75829">Commands</tspan></text><text font-size="6.049778" stroke-width=".151244" transform="scale(.96507639 1.0361874)" x="143.38155" y="157.1857"><tspan stroke-width=".151244" text-anchor="middle" x="143.38155" y="157.1857">Information</tspan></text><text font-size="6.049778" stroke-width=".151244" transform="scale(.96507639 1.0361874)" x="207.90887" y="157.44363"><tspan stroke-width=".151244" text-anchor="middle" x="207.90887" y="157.44363">Information</tspan></text><text font-size="6.049778" stroke-width=".151244" transform="scale(.96507639 1.0361874)" x="219.16008" y="143.75829"><tspan stroke-width=".151244" text-anchor="middle" x="219.16008" y="143.75829">Commands</tspan></text><text font-size="6.049778" stroke-width=".151244" transform="scale(.96507639 1.0361874)" x="76.223282" y="200.77679"><tspan dy="-4.1" stroke-width=".151244" x="76.223282" y="200.77679">Information</tspan><tspan stroke-width=".151244" x="76.223282" y="204.55791">(ie. light is on)</tspan></text><text font-size="6.049778" stroke-width=".151244" transform="scale(.96507639 1.0361874)" x="184.67532" y="200.63307"><tspan dy="-3.6" stroke-width=".151244" x="184.67532" y="200.63307">Commands</tspan><tspan stroke-width=".151244" x="184.67532" y="204.41418">(ie. turn light on)</tspan></text><text font-size="4.571058" stroke-width=".114276" transform="scale(1.0188363 .98151192)" x="118.75391" xml:space="preserve" y="271.22955"><tspan stroke-width=".114276" x="118.75391" y="271.22955">Graphic by Paulus Schoutsen 2014, CC BY 4.0 </tspan></text></g></g></svg>